<?xml version="1.0" standalone="no"?>
<!DOCTYPE svg PUBLIC "-//W3C//DTD SVG 20010904//EN"
 "http://www.w3.org/TR/2001/REC-SVG-20010904/DTD/svg10.dtd">
<svg version="1.0" xmlns="http://www.w3.org/2000/svg"
 width="25.000000pt" height="25.000000pt" viewBox="0 0 25.000000 25.000000"
 preserveAspectRatio="xMidYMid meet">

<g transform="translate(0.000000,25.000000) scale(0.100000,-0.100000)"
fill="#000000" stroke="none">
<path d="M50 240 c0 -5 -9 -10 -20 -10 -19 0 -20 -7 -20 -110 l0 -110 115 0
115 0 0 110 c0 103 -1 110 -20 110 -11 0 -20 5 -20 10 0 6 -7 10 -15 10 -8 0
-15 -4 -15 -10 0 -5 -20 -10 -45 -10 -25 0 -45 5 -45 10 0 6 -7 10 -15 10 -8
0 -15 -4 -15 -10z m17 -22 c-3 -8 -6 -5 -6 6 -1 11 2 17 5 13 3 -3 4 -12 1
-19z m120 0 c-3 -8 -6 -5 -6 6 -1 11 2 17 5 13 3 -3 4 -12 1 -19z m-137 -8 c0
-5 7 -10 15 -10 8 0 15 5 15 10 0 6 20 10 45 10 25 0 45 -4 45 -10 0 -5 7 -10
15 -10 8 0 15 5 15 10 0 6 7 10 15 10 8 0 15 -7 15 -15 0 -12 -18 -15 -105
-15 -87 0 -105 3 -105 15 0 8 7 15 15 15 8 0 15 -4 15 -10z m180 -115 l0 -75
-105 0 -105 0 0 75 0 75 105 0 105 0 0 -75z"/>
<path d="M116 153 c-3 -3 -6 -16 -6 -27 0 -12 -9 -25 -22 -31 -13 -6 -24 -20
-26 -32 -3 -22 0 -23 63 -23 63 0 66 1 63 23 -2 12 -13 26 -25 32 -14 6 -23
19 -23 32 0 23 -13 37 -24 26z m11 -55 c-3 -8 -6 -5 -6 6 -1 11 2 17 5 13 3
-3 4 -12 1 -19z m43 -33 c0 -11 -12 -15 -45 -15 -33 0 -45 4 -45 15 0 11 12
15 45 15 33 0 45 -4 45 -15z"/>
</g>
</svg>
