<?xml version="1.0" standalone="no"?>
<!DOCTYPE svg PUBLIC "-//W3C//DTD SVG 20010904//EN"
 "http://www.w3.org/TR/2001/REC-SVG-20010904/DTD/svg10.dtd">
<svg version="1.0" xmlns="http://www.w3.org/2000/svg"
 width="512.000000pt" height="512.000000pt" viewBox="0 0 512.000000 512.000000"
 preserveAspectRatio="xMidYMid meet">

<g transform="translate(0.000000,512.000000) scale(0.100000,-0.100000)"
fill="#000000" stroke="none">
<path d="M44 3998 c-42 -20 -44 -39 -44 -507 0 -417 1 -450 18 -471 14 -17 38
-25 107 -36 166 -26 280 -109 348 -251 30 -63 32 -76 32 -173 0 -97 -2 -110
-32 -173 -68 -142 -182 -225 -348 -251 -69 -11 -93 -19 -107 -36 -17 -21 -18
-54 -18 -471 0 -307 3 -456 11 -472 6 -14 22 -30 36 -36 34 -16 4992 -16 5026
0 14 6 30 22 36 36 8 16 11 165 11 472 0 417 -1 450 -18 471 -14 17 -38 25
-107 36 -163 26 -275 105 -342 242 -37 73 -38 80 -38 181 0 98 2 111 32 174
67 141 183 225 348 251 69 11 93 19 107 36 17 21 18 54 18 471 0 307 -3 456
-11 472 -6 14 -22 30 -36 36 -33 15 -4998 14 -5029 -1z m4906 -501 l0 -344
-55 -12 c-150 -34 -326 -173 -392 -311 -85 -174 -85 -366 -1 -537 73 -150 237
-281 393 -313 l55 -11 0 -345 0 -344 -2390 0 -2390 0 0 343 0 344 55 12 c150
34 326 173 392 311 85 174 85 366 2 536 -75 152 -237 281 -394 314 l-55 11 0
345 0 344 2390 0 2390 0 0 -343z"/>
<path d="M340 3585 l0 -85 85 0 85 0 0 85 0 85 -85 0 -85 0 0 -85z"/>
<path d="M1540 3585 l0 -85 85 0 85 0 0 85 0 85 -85 0 -85 0 0 -85z"/>
<path d="M4610 3585 l0 -85 85 0 85 0 0 85 0 85 -85 0 -85 0 0 -85z"/>
<path d="M2450 3395 c-97 -31 -193 -136 -221 -240 -17 -60 -6 -163 23 -226 31
-67 96 -132 168 -167 47 -23 68 -27 140 -27 73 0 93 4 142 28 72 35 134 97
167 167 22 47 26 69 26 145 0 79 -4 97 -28 143 -66 125 -156 184 -291 189 -52
2 -97 -2 -126 -12z m190 -174 c97 -51 118 -179 43 -262 -131 -145 -362 16
-273 191 18 36 55 70 90 83 33 12 107 6 140 -12z"/>
<path d="M1540 3245 l0 -85 85 0 85 0 0 85 0 85 -85 0 -85 0 0 -85z"/>
<path d="M3012 2617 l-682 -682 60 -60 60 -60 683 683 682 682 -60 60 -60 60
-683 -683z"/>
<path d="M1540 2905 l0 -85 85 0 86 0 -3 83 -3 82 -82 3 -83 3 0 -86z"/>
<path d="M1540 2560 l0 -91 83 3 82 3 0 85 0 85 -82 3 -83 3 0 -91z"/>
<path d="M3493 2376 c-302 -99 -338 -489 -58 -634 72 -37 188 -42 267 -12 99
37 188 136 212 235 14 56 7 151 -14 208 -58 154 -255 253 -407 203z m163 -175
c59 -27 87 -72 92 -146 3 -50 0 -65 -20 -94 -35 -51 -71 -73 -127 -79 -62 -6
-101 9 -141 54 -78 89 -52 217 54 265 52 23 90 23 142 0z"/>
<path d="M1540 2215 l0 -86 83 3 82 3 3 83 3 82 -86 0 -85 0 0 -85z"/>
<path d="M1540 1875 l0 -85 85 0 85 0 0 85 0 85 -85 0 -85 0 0 -85z"/>
<path d="M340 1535 l0 -85 85 0 85 0 0 85 0 85 -85 0 -85 0 0 -85z"/>
<path d="M1540 1535 l0 -85 85 0 85 0 0 85 0 85 -85 0 -85 0 0 -85z"/>
<path d="M4610 1535 l0 -85 85 0 85 0 0 85 0 85 -85 0 -85 0 0 -85z"/>
</g>
</svg>
