<?xml version="1.0" standalone="no"?>
<!DOCTYPE svg PUBLIC "-//W3C//DTD SVG 20010904//EN"
 "http://www.w3.org/TR/2001/REC-SVG-20010904/DTD/svg10.dtd">
<svg version="1.0" xmlns="http://www.w3.org/2000/svg"
 width="512.000000pt" height="512.000000pt" viewBox="0 0 512.000000 512.000000"
 preserveAspectRatio="xMidYMid meet">

<g transform="translate(0.000000,512.000000) scale(0.100000,-0.100000)"
fill="#000000" stroke="none">
<path d="M2789 5104 c-87 -26 -182 -135 -182 -206 0 -39 29 -68 70 -68 35 0
50 12 86 70 46 73 18 70 727 70 612 0 636 -1 667 -20 18 -10 39 -30 48 -43 39
-60 40 -54 -220 -782 l-247 -690 4 -76 c5 -89 33 -146 99 -203 75 -63 93 -66
471 -66 372 0 382 -1 431 -59 30 -36 37 -103 15 -144 -6 -12 -151 -195 -323
-407 -171 -212 -317 -395 -324 -407 -24 -47 14 -103 70 -103 18 0 38 13 65 43
95 104 621 762 644 804 37 71 40 174 7 246 -30 66 -78 116 -143 148 -48 24
-53 24 -414 29 -275 4 -371 8 -388 18 -34 19 -62 72 -62 116 0 25 84 273 240
711 133 370 243 695 247 723 9 81 -19 155 -87 224 -92 92 -58 88 -809 87 -530
0 -654 -3 -692 -15z"/>
<path d="M1915 4779 c-198 -29 -410 -141 -552 -292 -358 -383 -343 -979 34
-1338 129 -122 257 -195 424 -241 71 -19 108 -23 239 -23 131 0 168 4 239 23
334 91 585 341 683 678 20 69 23 102 23 249 0 148 -3 181 -23 250 -135 469
-587 763 -1067 694z m268 -150 c317 -49 576 -287 657 -603 27 -106 27 -271 1
-381 -68 -282 -273 -496 -561 -587 -64 -20 -96 -23 -220 -23 -163 0 -234 16
-365 82 -300 152 -477 481 -436 807 59 460 471 775 924 705z"/>
<path d="M1652 4370 c-45 -18 -89 -61 -118 -112 -25 -46 -29 -63 -29 -133 0
-88 18 -136 71 -189 63 -62 161 -84 238 -52 190 79 199 381 14 477 -40 20
-135 25 -176 9z m132 -159 c9 -10 21 -33 26 -51 29 -99 -66 -183 -131 -114
-19 20 -24 36 -24 79 0 43 5 59 24 79 30 31 80 35 105 7z"/>
<path d="M2197 4328 c-18 -15 -387 -888 -387 -919 0 -28 44 -69 73 -69 14 0
34 8 46 18 20 16 376 845 387 902 8 38 -29 80 -70 80 -18 0 -40 -6 -49 -12z"/>
<path d="M2300 3779 c-58 -26 -87 -53 -115 -110 -99 -194 59 -432 252 -380
182 49 243 302 105 440 -72 72 -156 89 -242 50z m122 -140 c22 -12 48 -66 48
-100 0 -34 -29 -85 -56 -98 -34 -15 -38 -15 -73 15 -86 72 -15 234 81 183z"/>
<path d="M415 4405 c-14 -13 -25 -36 -25 -50 0 -14 11 -37 25 -50 l24 -25 221
0 221 0 24 25 c14 13 25 36 25 50 0 14 -11 37 -25 50 l-24 25 -221 0 -221 0
-24 -25z"/>
<path d="M226 3889 c-33 -26 -36 -79 -6 -109 19 -19 33 -20 340 -20 l321 0 24
25 c32 31 32 69 0 100 l-24 25 -314 0 c-303 0 -315 -1 -341 -21z"/>
<path d="M441 3379 c-53 -22 -67 -80 -28 -117 22 -21 31 -22 249 -22 l227 0
20 26 c27 35 26 57 -3 91 l-24 28 -209 2 c-120 1 -218 -2 -232 -8z"/>
<path d="M1827 2658 c-25 -20 -37 -63 -37 -132 0 -109 60 -203 164 -259 40
-21 53 -22 441 -27 293 -4 406 -8 422 -17 32 -19 62 -61 69 -97 4 -25 -59
-256 -265 -972 -149 -517 -271 -956 -271 -977 0 -87 76 -166 168 -174 98 -9
72 -37 804 866 368 454 671 835 674 847 9 36 -5 64 -40 81 -28 13 -37 13 -59
2 -14 -8 -321 -378 -682 -824 -361 -445 -660 -814 -665 -818 -12 -13 -50 2
-50 20 0 9 120 431 267 937 293 1014 290 1001 245 1101 -29 63 -73 109 -137
143 l-50 27 -400 5 c-439 5 -427 4 -467 68 -17 29 -20 44 -15 97 5 54 3 67
-14 89 -23 29 -73 35 -102 14z"/>
</g>
</svg>
