<?xml version="1.0" standalone="no"?>
<!DOCTYPE svg PUBLIC "-//W3C//DTD SVG 20010904//EN"
 "http://www.w3.org/TR/2001/REC-SVG-20010904/DTD/svg10.dtd">
<svg version="1.0" xmlns="http://www.w3.org/2000/svg"
 width="25.000000pt" height="25.000000pt" viewBox="0 0 25.000000 25.000000"
 preserveAspectRatio="xMidYMid meet">

<g transform="translate(0.000000,25.000000) scale(0.100000,-0.100000)"
fill="#000000" stroke="none">
<path d="M180 230 c0 -5 7 -10 16 -10 8 0 12 -4 9 -10 -3 -5 -23 -10 -44 -10
-20 0 -42 -5 -49 -12 -15 -15 -16 -75 -1 -84 8 -5 10 1 7 21 -7 36 24 70 51
56 29 -16 32 -37 10 -65 -15 -19 -17 -26 -7 -26 24 0 38 23 38 61 0 21 5 41
10 44 6 3 10 -1 10 -9 0 -9 5 -16 10 -16 6 0 10 16 10 35 0 33 -2 35 -35 35
-19 0 -35 -4 -35 -10z"/>
<path d="M52 148 c-7 -7 -12 -29 -12 -50 0 -31 -3 -38 -17 -36 -12 2 -17 -4
-17 -22 0 -19 5 -24 24 -24 18 0 24 5 22 17 -2 14 5 17 36 17 21 0 43 5 50 12
15 15 16 75 1 84 -8 5 -10 -1 -7 -21 8 -37 -24 -70 -52 -55 -24 13 -26 47 -3
72 13 15 14 18 2 18 -8 0 -20 -5 -27 -12z"/>
</g>
</svg>
